<svg xmlns="http://www.w3.org/2000/svg" width="56" height="56" viewBox="0 0 56 56"><rect width="56" height="56" style="fill:none"/><path d="M28,8.5A2.5,2.5,0,0,1,30.5,11v7a2.5,2.5,0,0,1-5,0V11A2.5,2.5,0,0,1,28,8.5Z" style="fill:#6e6e73;fill-rule:evenodd"/><path d="M41.79,14.21a2.52,2.52,0,0,1,0,3.54L36.84,22.7a2.5,2.5,0,0,1-3.54-3.54l5-4.95A2.52,2.52,0,0,1,41.79,14.21Z" style="fill:#6e6e73;fill-rule:evenodd;opacity:0.100000001490116;isolation:isolate"/><path d="M47.5,28A2.5,2.5,0,0,1,45,30.5H38a2.5,2.5,0,0,1,0-5h7A2.5,2.5,0,0,1,47.5,28Z" style="fill:#6e6e73;fill-rule:evenodd;opacity:0.200000002980232;isolation:isolate"/><path d="M41.79,41.79a2.52,2.52,0,0,1-3.54,0l-5-4.95a2.5,2.5,0,0,1,3.54-3.54l4.95,5A2.52,2.52,0,0,1,41.79,41.79Z" style="fill:#6e6e73;fill-rule:evenodd;opacity:0.300000011920929;isolation:isolate"/><path d="M28,47.5A2.5,2.5,0,0,1,25.5,45V38a2.5,2.5,0,0,1,5,0v7A2.5,2.5,0,0,1,28,47.5Z" style="fill:#6e6e73;fill-rule:evenodd;opacity:0.400000005960465;isolation:isolate"/><path d="M14.21,41.79a2.52,2.52,0,0,1,0-3.54l4.95-5a2.5,2.5,0,0,1,3.54,3.54l-4.95,4.95A2.52,2.52,0,0,1,14.21,41.79Z" style="fill:#6e6e73;fill-rule:evenodd;opacity:0.600000023841858;isolation:isolate"/><path d="M8.5,28A2.5,2.5,0,0,1,11,25.5h7a2.5,2.5,0,0,1,0,5H11A2.5,2.5,0,0,1,8.5,28Z" style="fill:#6e6e73;fill-rule:evenodd;opacity:0.699999988079071;isolation:isolate"/><path d="M14.21,14.21a2.52,2.52,0,0,1,3.54,0l4.95,4.95a2.5,2.5,0,0,1-3.54,3.54l-4.95-4.95A2.52,2.52,0,0,1,14.21,14.21Z" style="fill:#6e6e73;fill-rule:evenodd;opacity:0.900000035762787;isolation:isolate"/></svg>